<svg width="100%" height="100%" viewBox="0 0 1920 344" fill="none" xmlns="http://www.w3.org/2000/svg">
<path d="M1867.58 88.4478C1849.02 40.2365 1801.56 43.0475 1785.63 93.2811C1779.56 112.371 1793.19 69.3979 1785.63 93.2811C1770.07 142.301 1727.91 157.387 1699.02 124.242C1672.79 94.1911 1665.28 85.5761 1642.78 59.7718C1606.13 17.7487 1552.48 41.8342 1537.69 106.952C1532.58 129.46 1543.73 80.3587 1537.69 106.952C1526.89 154.475 1484.56 164.445 1464.39 124.222C1449.31 94.1506 1451.66 98.8424 1436.54 68.6901C1413.98 23.7146 1367.8 27.4153 1348.64 75.7479C1339.67 98.357 1339.75 98.1548 1327.44 129.217C1317.74 153.687 1293.37 151.118 1286.07 124.869C1277.7 94.6966 1280.54 104.909 1274.72 83.9381C1260.75 33.6035 1215.88 22.9259 1192 64.2613C1181.99 81.5923 1202.44 46.2023 1192 64.2613C1165.91 109.419 1118.65 108.63 1093.26 62.6031C1077.39 33.826 1092.33 60.9245 1079.93 38.4367C1048.29 -18.9152 987.638 -10.7655 963.444 54.0689C956.22 73.4424 959.546 64.5242 945.956 100.966C937.628 123.292 916.174 124.06 907.123 102.341C896.41 76.6578 896.723 77.4061 889.063 59.0236C872.203 18.5779 833.029 16.6365 814.398 55.3228C801.531 82.0169 797.072 91.279 782.937 120.602C770.139 147.175 742.184 139.005 737.141 107.194C732.916 80.5407 736.664 104.141 733.311 82.9675C727.053 43.5329 691.573 35.565 677.725 70.4899C668.347 94.1506 673.486 81.1676 662.868 107.983C648.488 144.243 613.158 144.243 598.778 107.983C588.146 81.1676 598.246 106.648 590.109 86.102C570.672 37.0818 522.53 38.6794 504.592 88.9533C497.464 108.913 512.798 65.9398 504.592 88.9533C490.471 128.509 451.652 125.597 440.284 84.1403C434.246 62.0974 443.447 95.627 437.054 72.3505C428.631 41.5915 398.589 44.9485 393.355 77.2241C389.73 99.5299 393.996 73.1998 389.975 98.0133C385.082 128.145 357.344 132.352 348.457 104.303C340.183 78.2353 347.953 102.705 341.124 81.1878C328.08 40.0748 288.334 41.5308 276.68 83.5539C270.832 104.586 278.683 76.3141 271.582 101.896C262 136.457 229.614 138.762 217.837 105.738C208.419 79.3879 209.85 83.3719 200.445 57.0215C189.486 26.3233 159.009 30.5701 152.098 63.7558C145.61 94.8989 146.551 90.369 140.485 119.49C132.88 156.033 99.2127 160.441 87.4095 126.426C76.8324 95.9303 82.4072 112.007 73.084 85.1514C58.5541 43.2497 17.2542 47.5774 6.82701 92.1081C-4.5952 140.906 -165.31 195.467 -211 390.617C-74.8732 390.617 743.464 396.745 2244 409C1995.19 200.846 1869.72 94.009 1867.58 88.4478Z" fill="url(#paint0_linear)"/>
<defs>
<linearGradient id="paint0_linear" x1="1825" y1="-72.9596" x2="-71.2985" y2="286.419" gradientUnits="userSpaceOnUse">
<stop stop-color="#FF6E40"/>
<stop offset="1" stop-color="#FFC13B"/>
</linearGradient>
</defs>
</svg>
